# This file uses centimeters as units for non-parametric coordinates.

mtllib COSO.mtl
g default
v -2.347060 -0.860928 2.347060
v -1.877648 -1.043662 2.347060
v -1.408236 -1.186695 2.347060
v -0.938824 -1.269182 2.347060
v -0.469412 -1.281078 2.347060
v 0.000000 -1.264339 2.347060
v 0.469412 -1.266024 2.347060
v 0.938824 -1.240820 2.347060
v 1.408236 -1.148389 2.347060
v 1.877648 -1.000141 2.347060
v 2.347060 -0.817135 2.347060
v -2.347060 -1.172866 1.877648
v -1.877648 -1.402087 1.877648
v -1.408236 -1.579968 1.877648
v -0.938824 -1.686585 1.877648
v -0.469412 -1.707489 1.877648
v 0.000000 -1.690400 1.877648
v 0.469412 -1.689264 1.877648
v 0.938824 -1.652041 1.877648
v 1.408236 -1.532535 1.877648
v 1.877648 -1.346689 1.877648
v 2.347060 -1.115666 1.877648
v -2.347060 -1.443861 1.408236
v -1.877648 -1.708732 1.408236
v -1.408236 -1.915404 1.408236
v -0.938824 -2.041590 1.408236
v -0.469412 -2.070602 1.408236
v 0.000000 -2.053888 1.408236
v 0.469412 -2.050204 1.408236
v 0.938824 -2.002755 1.408236
v 1.408236 -1.861389 1.408236
v 1.877648 -1.644329 1.408236
v 2.347060 -1.375442 1.408236
v -2.347060 -1.640475 0.938824
v -1.877648 -1.929542 0.938824
v -1.408236 -2.155507 0.938824
v 1.408236 -2.097218 0.938824
v 1.877648 -1.859045 0.938824
v 2.347060 -1.564211 0.938824
v -2.347060 -1.741737 0.469412
v -1.877648 -2.042089 0.469412
v -1.408236 -2.276617 0.469412
v 1.408236 -2.215725 0.469412
v 1.877648 -1.967896 0.469412
v 2.347060 -1.660599 0.469412
v -2.347060 -1.780998 0.000000
v -1.877648 -2.085553 0.000000
v -1.408236 -2.324038 0.000000
v 1.408236 -2.262373 0.000000
v 1.877648 -2.010202 0.000000
v 2.347060 -1.698387 0.000000
v -2.347060 -1.798030 -0.469412
v -1.877648 -2.107907 -0.469412
v -1.408236 -2.348820 -0.469412
v 1.408236 -2.288604 -0.469412
v 1.877648 -2.034560 -0.469412
v 2.347060 -1.717352 -0.469412
v -2.347060 -1.747274 -0.938824
v -1.877648 -2.055586 -0.938824
v -1.408236 -2.294854 -0.938824
v 1.408236 -2.237882 -0.938824
v 1.877648 -1.986175 -0.938824
v 2.347060 -1.671634 -0.938824
v -2.347060 -1.589824 -1.408236
v -1.877648 -1.885289 -1.408236
v -1.408236 -2.114134 -1.408236
v -0.938824 -2.256161 -1.408236
v -0.469412 -2.296678 -1.408236
v 0.000000 -2.284683 -1.408236
v 0.469412 -2.276790 -1.408236
v 0.938824 -2.218571 -1.408236
v 1.408236 -2.061462 -1.408236
v 1.877648 -1.821836 -1.408236
v 2.347060 -1.521720 -1.408236
v -2.347060 -1.339546 -1.877648
v -1.877648 -1.612211 -1.877648
v -1.408236 -1.822966 -1.877648
v -0.938824 -1.953276 -1.877648
v -0.469412 -1.990233 -1.877648
v 0.000000 -1.979654 -1.877648
v 0.469412 -1.972352 -1.877648
v 0.938824 -1.919851 -1.877648
v 1.408236 -1.776511 -1.877648
v 1.877648 -1.557152 -1.877648
v 2.347060 -1.282095 -1.877648
v -2.347060 -1.028439 -2.347060
v -1.877648 -1.261674 -2.347060
v -1.408236 -1.447475 -2.347060
v -0.938824 -1.561994 -2.347060
v -0.469412 -1.594085 -2.347060
v 0.000000 -1.584450 -2.347060
v 0.469412 -1.579095 -2.347060
v 0.938824 -1.533601 -2.347060
v 1.408236 -1.409034 -2.347060
v 1.877648 -1.217579 -2.347060
v 2.347060 -0.983858 -2.347060
v -1.408236 -1.915404 1.408236
v -0.938824 -2.041590 1.408236
v -0.938824 -2.294777 0.938824
v -1.408236 -2.155507 0.938824
v -0.469412 -2.070602 1.408236
v -0.469412 -2.329697 0.938824
v 0.000000 -2.053888 1.408236
v 0.000000 -2.313667 0.938824
v 0.469412 -2.050204 1.408236
v 0.469412 -2.308251 0.938824
v 0.938824 -2.002755 1.408236
v 0.938824 -2.253260 0.938824
v 1.408236 -1.861389 1.408236
v 1.408236 -2.097218 0.938824
v -0.938824 -2.421649 0.469412
v -1.408236 -2.276617 0.469412
v -0.469412 -2.459581 0.469412
v 0.000000 -2.444166 0.469412
v 0.469412 -2.437082 0.469412
v 0.938824 -2.378607 0.469412
v 1.408236 -2.215725 0.469412
v -0.938824 -2.471249 0.000000
v -1.408236 -2.324038 0.000000
v -0.469412 -2.510840 0.000000
v 0.000000 -2.496183 0.000000
v 0.469412 -2.487993 0.000000
v 0.938824 -2.427542 0.000000
v 1.408236 -2.262373 0.000000
v -0.938824 -2.498676 -0.469412
v -1.408236 -2.348820 -0.469412
v -0.469412 -2.540239 -0.469412
v 0.000000 -2.526358 -0.469412
v 0.469412 -2.517870 -0.469412
v 0.938824 -2.455872 -0.469412
v 1.408236 -2.288604 -0.469412
v -0.938824 -2.443410 -0.938824
v -1.408236 -2.294854 -0.938824
v -0.469412 -2.485964 -0.938824
v 0.000000 -2.473213 -0.938824
v 0.469412 -2.464680 -0.938824
v 0.938824 -2.402823 -0.938824
v 1.408236 -2.237882 -0.938824
v -0.938824 -2.256161 -1.408236
v -1.408236 -2.114134 -1.408236
v -0.469412 -2.296678 -1.408236
v 0.000000 -2.284683 -1.408236
v 0.469412 -2.276790 -1.408236
v 0.938824 -2.218571 -1.408236
v 1.408236 -2.061462 -1.408236
v -3.591283 0.640000 3.591283
v -2.873024 0.640000 3.591283
v -1.913074 -1.091171 1.913075
v -3.591283 0.640000 2.873024
v -2.154768 0.640000 3.591283
v -1.434806 -1.272405 1.913075
v -1.436512 0.640000 3.591283
v -0.956537 -1.381037 1.913075
v -0.718256 0.640000 3.591283
v -0.478269 -1.402332 1.913075
v 0.000000 0.640000 3.591283
v 0.000000 -1.384925 1.913075
v 0.718256 0.640000 3.591283
v 0.478269 -1.383768 1.913075
v 1.436512 0.640000 3.591283
v 0.956537 -1.345840 1.913075
v 2.154768 0.640000 3.591283
v 1.434806 -1.224076 1.913075
v 2.873024 0.640000 3.591283
v 1.913075 -1.034727 1.913075
v 3.591283 0.640000 3.591283
v 3.591283 0.640000 2.873024
v -1.913074 -1.403604 1.434806
v -3.591283 0.640000 2.154768
v -1.434806 -1.614172 1.434806
v -0.956537 -1.742736 1.434806
v -0.478269 -1.772300 1.434806
v 0.000000 -1.755269 1.434806
v 0.478269 -1.751518 1.434806
v 0.956537 -1.703171 1.434806
v 1.434806 -1.559137 1.434806
v 1.913075 -1.337983 1.434806
v 3.591283 0.640000 2.154768
v -1.913074 -1.628578 0.956537
v -3.591283 0.640000 1.436512
v -1.434806 -1.858805 0.956537
v -1.434806 -1.614172 1.434806
v -0.956537 -1.742736 1.434806
v -0.956537 -2.000701 0.956537
v -1.434806 -1.858805 0.956537
v -0.478269 -1.772300 1.434806
v -0.478269 -2.036282 0.956537
v 0.000000 -1.755269 1.434806
v 0.000000 -2.019949 0.956537
v 0.478269 -1.751518 1.434806
v 0.478269 -2.014428 0.956537
v 0.956537 -1.703171 1.434806
v 0.956537 -1.958403 0.956537
v 1.434806 -1.559137 1.434806
v 1.434806 -1.799418 0.956537
v 1.913075 -1.556752 0.956537
v 1.434806 -1.799418 0.956537
v 3.591283 0.640000 1.436512
v -1.913074 -1.743245 0.478269
v -3.591283 0.640000 0.718256
v -1.434806 -1.982202 0.478269
v -0.956537 -2.129970 0.478269
v -1.434806 -1.982202 0.478269
v -0.478269 -2.168615 0.478269
v 0.000000 -2.152909 0.478269
v 0.478269 -2.145695 0.478269
v 0.956537 -2.086115 0.478269
v 1.434806 -1.920159 0.478269
v 1.913075 -1.667655 0.478269
v 1.434806 -1.920159 0.478269
v 3.591283 0.640000 0.718256
v -1.913074 -1.787532 0.000000
v -3.591283 0.640000 0.000000
v -1.434806 -2.030517 0.000000
v -0.956537 -2.180507 0.000000
v -1.434806 -2.030517 0.000000
v -0.478269 -2.220842 0.000000
v 0.000000 -2.205911 0.000000
v 0.478269 -2.197565 0.000000
v 0.956537 -2.135971 0.000000
v 1.434806 -1.967688 0.000000
v 1.913075 -1.710759 0.000000
v 1.434806 -1.967688 0.000000
v 3.591283 0.640000 0.000000
v -1.913074 -1.810307 -0.478269
v -3.591283 0.640000 -0.718256
v -1.434806 -2.055767 -0.478269
v -0.956537 -2.208450 -0.478269
v -1.434806 -2.055767 -0.478269
v -0.478269 -2.250793 -0.478269
v 0.000000 -2.236653 -0.478269
v 0.478269 -2.228007 -0.478269
v 0.956537 -2.164838 -0.478269
v 1.434806 -1.994415 -0.478269
v 1.913075 -1.735575 -0.478269
v 1.434806 -1.994415 -0.478269
v 3.591283 0.640000 -0.718256
v -1.913074 -1.756998 -0.956537
v -3.591283 0.640000 -1.436512
v -1.434806 -2.000780 -0.956537
v -0.956537 -2.152140 -0.956537
v -1.434806 -2.000780 -0.956537
v -0.478269 -2.195499 -0.956537
v 0.000000 -2.182507 -0.956537
v 0.478269 -2.173814 -0.956537
v 0.956537 -2.110787 -0.956537
v 1.434806 -1.942734 -0.956537
v 1.913075 -1.686280 -0.956537
v 1.434806 -1.942734 -0.956537
v 3.591283 0.640000 -1.436512
v -1.913074 -1.583491 -1.434806
v -3.591282 0.640000 -2.154768
v -1.434806 -1.816650 -1.434806
v -0.956537 -1.961360 -1.434806
v -1.434806 -1.816650 -1.434806
v -0.478269 -2.002639 -1.434806
v 0.000000 -1.990419 -1.434806
v 0.478269 -1.982377 -1.434806
v 0.956537 -1.923058 -1.434806
v 1.434806 -1.762986 -1.434806
v 1.913075 -1.518838 -1.434806
v 1.434806 -1.762986 -1.434806
v 3.591283 0.640000 -2.154768
v -1.913074 -1.305255 -1.913075
v -3.591282 0.640000 -2.873024
v -1.434806 -1.519990 -1.913075
v -0.956537 -1.961360 -1.434806
v -0.956537 -1.652759 -1.913075
v -0.478269 -2.002639 -1.434806
v -0.478269 -1.690415 -1.913075
v 0.000000 -1.990419 -1.434806
v 0.000000 -1.679633 -1.913075
v 0.478269 -1.982377 -1.434806
v 0.478269 -1.672194 -1.913075
v 0.956537 -1.923058 -1.434806
v 0.956537 -1.618706 -1.913075
v 1.434806 -1.472661 -1.913075
v 1.913075 -1.249161 -1.913075
v 3.591283 0.640000 -2.873024
v -2.873024 0.640000 -3.591283
v -3.591283 0.640000 -3.591283
v -2.154768 0.640000 -3.591283
v -1.436512 0.640000 -3.591283
v -0.718256 0.640000 -3.591283
v 0.000000 0.640000 -3.591283
v 0.718256 0.640000 -3.591283
v 1.436512 0.640000 -3.591283
v 2.154768 0.640000 -3.591283
v 2.873024 0.640000 -3.591283
v 3.591283 0.638493 -3.591283
v 0.000000 1.105729 0.478269
v 0.478269 1.112944 0.478269
v 0.478269 1.061073 0.000000
v 0.000000 1.052727 0.000000
vt 0.000000 0.000000
vt 0.100000 0.000000
vt 0.200000 0.000000
vt 0.300000 0.000000
vt 0.400000 0.000000
vt 0.500000 0.000000
vt 0.600000 0.000000
vt 0.700000 0.000000
vt 0.800000 0.000000
vt 0.900000 0.000000
vt 1.000000 0.000000
vt 0.000000 0.100000
vt 0.100000 0.100000
vt 0.200000 0.100000
vt 0.300000 0.100000
vt 0.400000 0.100000
vt 0.500000 0.100000
vt 0.600000 0.100000
vt 0.700000 0.100000
vt 0.800000 0.100000
vt 0.900000 0.100000
vt 1.000000 0.100000
vt 0.000000 0.200000
vt 0.100000 0.200000
vt 0.200000 0.200000
vt 0.300000 0.200000
vt 0.400000 0.200000
vt 0.500000 0.200000
vt 0.600000 0.200000
vt 0.700000 0.200000
vt 0.800000 0.200000
vt 0.900000 0.200000
vt 1.000000 0.200000
vt 0.000000 0.300000
vt 0.100000 0.300000
vt 0.200000 0.300000
vt 0.300000 0.300000
vt 0.400000 0.300000
vt 0.500000 0.300000
vt 0.600000 0.300000
vt 0.700000 0.300000
vt 0.800000 0.300000
vt 0.900000 0.300000
vt 1.000000 0.300000
vt 0.000000 0.400000
vt 0.100000 0.400000
vt 0.200000 0.400000
vt 0.300000 0.400000
vt 0.400000 0.400000
vt 0.500000 0.400000
vt 0.600000 0.400000
vt 0.700000 0.400000
vt 0.800000 0.400000
vt 0.900000 0.400000
vt 1.000000 0.400000
vt 0.000000 0.500000
vt 0.100000 0.500000
vt 0.200000 0.500000
vt 0.300000 0.500000
vt 0.400000 0.500000
vt 0.500000 0.500000
vt 0.600000 0.500000
vt 0.700000 0.500000
vt 0.800000 0.500000
vt 0.900000 0.500000
vt 1.000000 0.500000
vt 0.000000 0.600000
vt 0.100000 0.600000
vt 0.200000 0.600000
vt 0.300000 0.600000
vt 0.400000 0.600000
vt 0.500000 0.600000
vt 0.600000 0.600000
vt 0.700000 0.600000
vt 0.800000 0.600000
vt 0.900000 0.600000
vt 1.000000 0.600000
vt 0.000000 0.700000
vt 0.100000 0.700000
vt 0.200000 0.700000
vt 0.300000 0.700000
vt 0.400000 0.700000
vt 0.500000 0.700000
vt 0.600000 0.700000
vt 0.700000 0.700000
vt 0.800000 0.700000
vt 0.900000 0.700000
vt 1.000000 0.700000
vt 0.000000 0.800000
vt 0.100000 0.800000
vt 0.200000 0.800000
vt 0.300000 0.800000
vt 0.400000 0.800000
vt 0.500000 0.800000
vt 0.600000 0.800000
vt 0.700000 0.800000
vt 0.800000 0.800000
vt 0.900000 0.800000
vt 1.000000 0.800000
vt 0.000000 0.900000
vt 0.100000 0.900000
vt 0.200000 0.900000
vt 0.300000 0.900000
vt 0.400000 0.900000
vt 0.500000 0.900000
vt 0.600000 0.900000
vt 0.700000 0.900000
vt 0.800000 0.900000
vt 0.900000 0.900000
vt 1.000000 0.900000
vt 0.000000 1.000000
vt 0.100000 1.000000
vt 0.200000 1.000000
vt 0.300000 1.000000
vt 0.400000 1.000000
vt 0.500000 1.000000
vt 0.600000 1.000000
vt 0.700000 1.000000
vt 0.800000 1.000000
vt 0.900000 1.000000
vt 1.000000 1.000000
vt 0.200000 0.200000
vt 0.300000 0.200000
vt 0.200000 0.300000
vt 0.400000 0.200000
vt 0.500000 0.200000
vt 0.600000 0.200000
vt 0.700000 0.200000
vt 0.800000 0.200000
vt 0.800000 0.300000
vt 0.200000 0.400000
vt 0.800000 0.400000
vt 0.200000 0.500000
vt 0.800000 0.500000
vt 0.200000 0.600000
vt 0.800000 0.600000
vt 0.200000 0.700000
vt 0.800000 0.700000
vt 0.300000 0.800000
vt 0.200000 0.800000
vt 0.400000 0.800000
vt 0.500000 0.800000
vt 0.600000 0.800000
vt 0.700000 0.800000
vt 0.800000 0.800000
vt 0.000000 0.000000
vt 0.100000 0.000000
vt 0.100000 0.100000
vt 0.000000 0.100000
vt 0.200000 0.000000
vt 0.200000 0.100000
vt 0.300000 0.000000
vt 0.300000 0.100000
vt 0.400000 0.000000
vt 0.400000 0.100000
vt 0.500000 0.000000
vt 0.500000 0.100000
vt 0.600000 0.000000
vt 0.600000 0.100000
vt 0.700000 0.000000
vt 0.700000 0.100000
vt 0.800000 0.000000
vt 0.800000 0.100000
vt 0.900000 0.000000
vt 0.900000 0.100000
vt 1.000000 0.000000
vt 1.000000 0.100000
vt 0.100000 0.200000
vt 0.000000 0.200000
vt 0.200000 0.200000
vt 0.300000 0.200000
vt 0.400000 0.200000
vt 0.500000 0.200000
vt 0.600000 0.200000
vt 0.700000 0.200000
vt 0.800000 0.200000
vt 0.900000 0.200000
vt 1.000000 0.200000
vt 0.100000 0.300000
vt 0.000000 0.300000
vt 0.200000 0.300000
vt 0.200000 0.200000
vt 0.300000 0.200000
vt 0.300000 0.300000
vt 0.200000 0.300000
vt 0.400000 0.200000
vt 0.400000 0.300000
vt 0.500000 0.200000
vt 0.500000 0.300000
vt 0.600000 0.200000
vt 0.600000 0.300000
vt 0.700000 0.200000
vt 0.700000 0.300000
vt 0.800000 0.200000
vt 0.800000 0.300000
vt 0.900000 0.300000
vt 0.800000 0.300000
vt 1.000000 0.300000
vt 0.100000 0.400000
vt 0.000000 0.400000
vt 0.200000 0.400000
vt 0.300000 0.400000
vt 0.200000 0.400000
vt 0.400000 0.400000
vt 0.500000 0.400000
vt 0.600000 0.400000
vt 0.700000 0.400000
vt 0.800000 0.400000
vt 0.900000 0.400000
vt 0.800000 0.400000
vt 1.000000 0.400000
vt 0.100000 0.500000
vt 0.000000 0.500000
vt 0.200000 0.500000
vt 0.300000 0.500000
vt 0.200000 0.500000
vt 0.400000 0.500000
vt 0.500000 0.500000
vt 0.600000 0.500000
vt 0.700000 0.500000
vt 0.800000 0.500000
vt 0.900000 0.500000
vt 0.800000 0.500000
vt 1.000000 0.500000
vt 0.100000 0.600000
vt 0.000000 0.600000
vt 0.200000 0.600000
vt 0.300000 0.600000
vt 0.200000 0.600000
vt 0.400000 0.600000
vt 0.500000 0.600000
vt 0.600000 0.600000
vt 0.700000 0.600000
vt 0.800000 0.600000
vt 0.900000 0.600000
vt 0.800000 0.600000
vt 1.000000 0.600000
vt 0.100000 0.700000
vt 0.000000 0.700000
vt 0.200000 0.700000
vt 0.300000 0.700000
vt 0.200000 0.700000
vt 0.400000 0.700000
vt 0.500000 0.700000
vt 0.600000 0.700000
vt 0.700000 0.700000
vt 0.800000 0.700000
vt 0.900000 0.700000
vt 0.800000 0.700000
vt 1.000000 0.700000
vt 0.100000 0.800000
vt 0.000000 0.800000
vt 0.200000 0.800000
vt 0.300000 0.800000
vt 0.200000 0.800000
vt 0.400000 0.800000
vt 0.500000 0.800000
vt 0.600000 0.800000
vt 0.700000 0.800000
vt 0.800000 0.800000
vt 0.900000 0.800000
vt 0.800000 0.800000
vt 1.000000 0.800000
vt 0.100000 0.900000
vt 0.000000 0.900000
vt 0.200000 0.900000
vt 0.300000 0.800000
vt 0.300000 0.900000
vt 0.400000 0.800000
vt 0.400000 0.900000
vt 0.500000 0.800000
vt 0.500000 0.900000
vt 0.600000 0.800000
vt 0.600000 0.900000
vt 0.700000 0.800000
vt 0.700000 0.900000
vt 0.800000 0.900000
vt 0.900000 0.900000
vt 1.000000 0.900000
vt 0.100000 1.000000
vt 0.000000 1.000000
vt 0.200000 1.000000
vt 0.300000 1.000000
vt 0.400000 1.000000
vt 0.500000 1.000000
vt 0.600000 1.000000
vt 0.700000 1.000000
vt 0.800000 1.000000
vt 0.900000 1.000000
vt 1.000000 1.000000
vt 0.000000 0.000000
vt 0.100000 0.000000
vt 0.000000 0.100000
vt 0.200000 0.000000
vt 0.300000 0.000000
vt 0.400000 0.000000
vt 0.500000 0.000000
vt 0.600000 0.000000
vt 0.700000 0.000000
vt 0.800000 0.000000
vt 0.900000 0.000000
vt 1.000000 0.000000
vt 1.000000 0.100000
vt 0.000000 0.200000
vt 1.000000 0.200000
vt 0.000000 0.300000
vt 1.000000 0.300000
vt 0.000000 0.400000
vt 1.000000 0.400000
vt 0.000000 0.500000
vt 1.000000 0.500000
vt 0.000000 0.600000
vt 1.000000 0.600000
vt 0.000000 0.700000
vt 1.000000 0.700000
vt 0.000000 0.800000
vt 1.000000 0.800000
vt 0.000000 0.900000
vt 1.000000 0.900000
vt 0.100000 1.000000
vt 0.000000 1.000000
vt 0.200000 1.000000
vt 0.300000 1.000000
vt 0.400000 1.000000
vt 0.500000 1.000000
vt 0.600000 1.000000
vt 0.700000 1.000000
vt 0.800000 1.000000
vt 0.900000 1.000000
vt 1.000000 1.000000
vt 0.500000 0.400000
vt 0.600000 0.400000
vt 0.600000 0.500000
vt 0.500000 0.500000
vn 0.416703 0.807909 -0.416703
vn 0.053411 0.698879 -0.713243
vn 0.435110 0.764129 -0.476221
vn 0.086313 0.682563 -0.725712
vn 0.108049 0.695978 -0.709887
vn 0.037990 0.649489 -0.759422
vn 0.046332 0.673790 -0.737469
vn 0.001629 0.637156 -0.770733
vn 0.001442 0.664084 -0.747656
vn -0.004943 0.637193 -0.770688
vn -0.006719 0.662874 -0.748701
vn -0.011045 0.641259 -0.767245
vn -0.014317 0.667553 -0.744424
vn -0.046530 0.657176 -0.752300
vn -0.057945 0.679972 -0.730945
vn -0.093609 0.693233 -0.714608
vn -0.117888 0.704580 -0.699764
vn -0.056530 0.710768 -0.701152
vn -0.429946 0.772762 -0.466889
vn -0.407683 0.817061 -0.407683
vn 0.708485 0.699679 -0.092181
vn 0.698073 0.688709 -0.195893
vn 0.727070 0.668984 -0.154371
vn 0.298837 0.806714 -0.509813
vn 0.114620 0.794300 -0.596615
vn 0.006619 0.792521 -0.609809
vn -0.016374 0.791151 -0.611402
vn -0.037107 0.793708 -0.607166
vn -0.140551 0.795003 -0.590098
vn -0.318367 0.805934 -0.499112
vn -0.689264 0.698196 -0.193486
vn -0.696897 0.711423 -0.090621
vn -0.716041 0.681145 -0.152731
vn 0.748709 0.652600 -0.116395
vn 0.785653 0.612100 -0.089901
vn 0.409816 0.858870 -0.307235
vn 0.242810 0.858748 -0.451216
vn 0.157169 0.870758 -0.465917
vn 0.166456 0.915816 -0.365477
vn 0.261547 0.895229 -0.360774
vn 0.014738 0.876432 -0.481300
vn 0.017854 0.924933 -0.379710
vn -0.019433 0.875266 -0.483251
vn -0.021119 0.923472 -0.383084
vn -0.052768 0.876271 -0.478920
vn -0.058312 0.924201 -0.377429
vn -0.189916 0.867785 -0.459219
vn -0.200812 0.911204 -0.359697
vn -0.270778 0.854761 -0.442790
vn -0.291102 0.888963 -0.353560
vn -0.740572 0.662069 -0.114966
vn -0.429003 0.852926 -0.297444
vn -0.775914 0.624513 -0.089115
vn 0.773964 0.630986 -0.053261
vn 0.812373 0.581796 -0.039539
vn 0.440419 0.885244 -0.149577
vn 0.186011 0.965957 -0.179798
vn 0.288862 0.941167 -0.175393
vn 0.023179 0.981888 -0.188038
vn -0.025669 0.976047 -0.216038
vn -0.084485 0.973733 -0.211437
vn -0.223377 0.958674 -0.176199
vn -0.320828 0.931572 -0.171007
vn -0.766204 0.640446 -0.052541
vn -0.460329 0.875960 -0.144188
vn -0.803374 0.594187 -0.039139
vn 0.784726 0.619432 -0.022552
vn 0.821757 0.569614 -0.015963
vn 0.451470 0.889919 -0.064955
vn 0.194426 0.977668 -0.079778
vn 0.298557 0.951366 -0.075942
vn 0.026523 0.996033 -0.084944
vn -0.026635 0.996527 -0.078892
vn -0.016169 0.993914 -0.108970
vn -0.016169 0.993914 -0.108970
vn -0.016169 0.993913 -0.108970
vn -0.016169 0.993913 -0.108970
vn -0.232468 0.969354 -0.079450
vn -0.090955 0.992891 -0.076781
vn -0.330850 0.940654 -0.075554
vn -0.777193 0.628835 -0.023182
vn -0.471399 0.879526 -0.064942
vn -0.813128 0.581851 -0.016514
vn 0.783877 0.620849 0.009162
vn 0.822106 0.569275 0.008193
vn 0.454899 0.890122 0.027376
vn 0.197277 0.979935 0.028456
vn 0.302176 0.952798 0.029419
vn 0.029197 0.999218 0.026668
vn -0.023655 0.999406 0.025058
vn -0.074098 0.996939 0.024958
vn -0.234351 0.971830 0.025024
vn -0.333582 0.942386 0.025130
vn -0.776619 0.629927 0.007367
vn -0.474322 0.880072 0.022177
vn -0.813786 0.581124 0.006888
vn 0.769928 0.633823 0.074020
vn 0.807140 0.587431 0.058732
vn 0.441588 0.873567 0.204650
vn 0.189981 0.951505 0.241964
vn 0.290328 0.926072 0.241039
vn 0.029708 0.968020 0.249110
vn -0.021873 0.968092 0.249639
vn -0.071083 0.966606 0.246213
vn -0.224342 0.945620 0.235528
vn -0.319768 0.918373 0.233110
vn -0.762789 0.642640 0.071888
vn -0.460385 0.866068 0.194864
vn -0.798730 0.598948 0.057367
vn 0.734174 0.660804 0.155969
vn 0.764680 0.632399 0.123836
vn 0.344274 0.829397 0.439973
vn 0.186144 0.913407 0.361993
vn 0.276909 0.894633 0.350647
vn 0.029190 0.927520 0.372632
vn -0.020322 0.927743 0.372666
vn -0.068211 0.926749 0.369436
vn -0.218961 0.909053 0.354511
vn -0.304964 0.889016 0.341537
vn -0.726779 0.669538 0.153334
vn -0.364041 0.826909 0.428596
vn -0.755555 0.643612 0.122070
vn 0.471956 0.733483 0.489143
vn 0.750027 0.656773 0.078154
vn 0.121395 0.662557 0.739108
vn 0.149237 0.832292 0.533871
vn 0.056708 0.639397 0.766783
vn 0.024025 0.838129 0.544942
vn 0.008578 0.628103 0.778083
vn -0.016886 0.838225 0.545064
vn -0.006214 0.625526 0.780179
vn -0.055190 0.838732 0.541741
vn -0.020374 0.631105 0.775430
vn -0.175590 0.831860 0.526476
vn -0.067500 0.644868 0.761307
vn -0.131119 0.670332 0.730386
vn -0.467791 0.741625 0.480795
vn -0.740729 0.667485 0.076053
vn 0.448239 0.773410 0.448239
vn 0.096225 0.637987 0.764011
vn 0.060275 0.656317 0.752073
vn 0.045420 0.601971 0.797225
vn 0.007227 0.587330 0.809315
vn -0.004462 0.585988 0.810308
vn -0.015650 0.590859 0.806623
vn -0.053286 0.608705 0.791605
vn -0.103496 0.647670 0.754859
vn -0.062882 0.667158 0.742258
vn -0.440157 0.782638 0.440157
vn 0.000000 0.000000 0.000000
vn 0.000000 0.000000 0.000000
vn 0.000000 0.000000 0.000000
vn 0.000000 0.000000 0.000000
vn 0.000000 0.000000 0.000000
vn 0.000000 0.000000 0.000000
vn 0.000000 0.000000 0.000000
vn 0.000000 0.000000 0.000000
vn 0.000000 0.000000 0.000000
vn 0.000000 0.000000 0.000000
vn 0.000000 0.000000 0.000000
vn 0.000000 0.000000 0.000000
vn 0.000000 0.000000 0.000000
vn 0.000000 0.000000 0.000000
vn 0.000000 0.000000 0.000000
vn 0.000000 0.000000 0.000000
vn 0.000000 0.000000 0.000000
vn 0.000000 0.000000 0.000000
vn 0.000000 0.000000 0.000000
vn 0.000000 0.000000 0.000000
vn 0.000000 0.000000 0.000000
vn 0.000000 0.000000 0.000000
vn 0.000000 0.000000 0.000000
vn 0.000000 0.000000 0.000000
vn 0.000000 0.000000 0.000000
vn 0.000000 0.000000 0.000000
vn 0.000000 0.000000 0.000000
vn 0.000000 0.000000 0.000000
vn 0.000000 0.000000 0.000000
vn 0.000000 0.000000 0.000000
vn 0.000000 0.000000 0.000000
vn 0.000000 0.000000 0.000000
vn 0.000000 0.000000 0.000000
vn 0.000000 0.000000 0.000000
vn 0.000000 0.000000 0.000000
vn 0.000000 0.000000 0.000000
vn 0.000000 0.000000 0.000000
vn 0.000000 0.000000 0.000000
vn 0.000000 0.000000 0.000000
vn 0.000000 0.000000 0.000000
vn 0.000000 0.000000 0.000000
vn 0.000000 0.000000 0.000000
vn 0.000000 0.000000 0.000000
vn 0.000000 0.000000 0.000000
vn 0.000000 0.000000 0.000000
vn 0.000000 0.000000 0.000000
vn 0.000000 0.000000 0.000000
vn 0.000000 0.000000 0.000000
vn 0.000000 0.000000 0.000000
vn 0.000000 0.000000 0.000000
vn 0.000000 0.000000 0.000000
vn 0.000000 0.000000 0.000000
vn 0.000000 0.000000 0.000000
vn 0.000000 0.000000 0.000000
vn 0.000000 0.000000 0.000000
vn 0.000000 0.000000 0.000000
vn 0.000000 0.000000 0.000000
vn 0.000000 0.000000 0.000000
vn 0.000000 0.000000 0.000000
vn 0.000000 0.000000 0.000000
vn 0.000000 0.000000 0.000000
vn 0.000000 0.000000 0.000000
vn 0.000000 0.000000 0.000000
vn 0.000000 0.000000 0.000000
vn 0.000000 0.000000 0.000000
vn 0.000000 0.000000 0.000000
vn 0.000000 0.000000 0.000000
vn 0.000000 0.000000 0.000000
vn 0.000000 0.000000 0.000000
vn 0.000000 0.000000 0.000000
vn 0.000000 0.000000 0.000000
vn 0.000000 0.000000 0.000000
vn 0.000000 0.000000 0.000000
vn 0.000000 0.000000 0.000000
vn 0.000000 0.000000 0.000000
vn 0.000000 0.000000 0.000000
vn 0.000000 0.000000 0.000000
vn 0.000000 0.000000 0.000000
vn 0.000000 0.000000 0.000000
vn 0.000000 0.000000 0.000000
vn 0.000000 0.000000 0.000000
vn 0.000000 0.000000 0.000000
vn 0.000000 0.000000 0.000000
vn 0.000000 0.000000 0.000000
vn 0.000000 0.000000 0.000000
vn 0.000000 0.000000 0.000000
vn 0.000000 0.000000 0.000000
vn 0.000000 0.000000 0.000000
vn 0.000000 0.000000 0.000000
vn 0.000000 0.000000 0.000000
vn 0.000000 0.000000 0.000000
vn 0.000000 0.000000 0.000000
vn 0.000000 0.000000 0.000000
vn 0.000000 0.000000 0.000000
vn 0.000000 0.000000 0.000000
vn 0.000000 0.000000 0.000000
vn -0.336305 -0.766423 0.547261
vn -0.367517 -0.771937 0.518696
vn -0.331799 -0.771520 0.542832
vn -0.302028 -0.761934 0.572918
vn -0.232108 -0.770783 0.593313
vn -0.209382 -0.752733 0.624141
vn -0.104237 -0.771535 0.627590
vn -0.090871 -0.747448 0.658076
vn -0.003144 -0.767470 0.641077
vn 0.000464 -0.742031 0.670366
vn 0.014665 -0.765612 0.643135
vn 0.013037 -0.740898 0.671491
vn 0.031128 -0.769195 0.638255
vn 0.024792 -0.744302 0.667383
vn 0.128324 -0.773464 0.620714
vn 0.112715 -0.750762 0.650885
vn 0.249893 -0.773381 0.582611
vn 0.225071 -0.757357 0.612987
vn 0.341990 -0.776382 0.529409
vn 0.310438 -0.768875 0.558982
vn 0.373890 -0.778652 0.503892
vn 0.341608 -0.774609 0.532245
vn -0.437794 -0.790549 0.428216
vn -0.397650 -0.800999 0.447521
vn -0.298839 -0.806713 0.509813
vn -0.114620 -0.794300 0.596616
vn -0.006618 -0.792521 0.609809
vn 0.016377 -0.791150 0.611402
vn 0.037106 -0.793707 0.607167
vn 0.140548 -0.795003 0.590098
vn 0.318368 -0.805934 0.499110
vn 0.410037 -0.801525 0.435232
vn 0.445757 -0.793294 0.414711
vn -0.497552 -0.819566 0.284172
vn -0.454208 -0.840070 0.296611
vn -0.409817 -0.858869 0.307236
vn -0.242814 -0.858747 0.451215
vn -0.261550 -0.895229 0.360772
vn -0.166457 -0.915816 0.365476
vn -0.157168 -0.870758 0.465917
vn -0.017853 -0.924933 0.379710
vn -0.014736 -0.876431 0.481301
vn 0.021118 -0.923472 0.383084
vn 0.019432 -0.875265 0.483254
vn 0.058312 -0.924201 0.377428
vn 0.052768 -0.876269 0.478923
vn 0.200813 -0.911204 0.359697
vn 0.189916 -0.867785 0.459219
vn 0.291103 -0.888963 0.353559
vn 0.270778 -0.854762 0.442788
vn 0.429005 -0.852926 0.297444
vn 0.467870 -0.836008 0.286684
vn 0.506262 -0.817909 0.273358
vn -0.531550 -0.836207 0.134949
vn -0.486995 -0.861703 0.142493
vn -0.440417 -0.885246 0.149577
vn -0.288863 -0.941168 0.175390
vn -0.186013 -0.965957 0.179796
vn -0.023180 -0.981888 0.188037
vn 0.023352 -0.981540 0.189824
vn 0.067737 -0.980129 0.186437
vn 0.223377 -0.958674 0.176199
vn 0.320829 -0.931571 0.171008
vn 0.460330 -0.875960 0.144189
vn 0.501114 -0.854474 0.136962
vn 0.540420 -0.831445 0.129015
vn -0.543751 -0.837451 0.054860
vn -0.499421 -0.864289 0.059857
vn -0.451468 -0.889920 0.064954
vn -0.298556 -0.951366 0.075941
vn -0.194428 -0.977667 0.079778
vn -0.026524 -0.996033 0.084944
vn 0.024022 -0.995969 0.086425
vn 0.072280 -0.993765 0.084891
vn 0.232467 -0.969354 0.079449
vn 0.330852 -0.940653 0.075553
vn 0.471398 -0.879526 0.064943
vn 0.513535 -0.855973 0.059939
vn 0.552683 -0.831574 0.055003
vn -0.548567 -0.835600 -0.029117
vn -0.502748 -0.863973 -0.028196
vn -0.454898 -0.890123 -0.027375
vn -0.302175 -0.952799 -0.029416
vn -0.197278 -0.979934 -0.028455
vn -0.029197 -0.999218 -0.026668
vn 0.023658 -0.999406 -0.025059
vn 0.074097 -0.996939 -0.024959
vn 0.234350 -0.971830 -0.025025
vn 0.333583 -0.942386 -0.025129
vn 0.474321 -0.880073 -0.022178
vn 0.516573 -0.855945 -0.022599
vn 0.557314 -0.829982 -0.023045
vn -0.534589 -0.822137 -0.195720
vn -0.488530 -0.849165 -0.200645
vn -0.441589 -0.873566 -0.204649
vn -0.290325 -0.926073 -0.241038
vn -0.189980 -0.951505 -0.241963
vn -0.029708 -0.968019 -0.249111
vn 0.021874 -0.968092 -0.249640
vn 0.071082 -0.966606 -0.246212
vn 0.224340 -0.945621 -0.235526
vn 0.319768 -0.918373 -0.233109
vn 0.460385 -0.866068 -0.194864
vn 0.501974 -0.843630 -0.190556
vn 0.543178 -0.819043 -0.184735
vn -0.490762 -0.789461 -0.368651
vn -0.447201 -0.809482 -0.380460
vn -0.344274 -0.829397 -0.439972
vn -0.276905 -0.894634 -0.350649
vn -0.186142 -0.913407 -0.361993
vn -0.029190 -0.927521 -0.372630
vn 0.020322 -0.927744 -0.372664
vn 0.068210 -0.926750 -0.369433
vn 0.218960 -0.909054 -0.354510
vn 0.304964 -0.889016 -0.341537
vn 0.364041 -0.826909 -0.428598
vn 0.459699 -0.808324 -0.367817
vn 0.498899 -0.790655 -0.354914
vn -0.430199 -0.759266 -0.488307
vn -0.391153 -0.768390 -0.506533
vn -0.282717 -0.784275 -0.552253
vn -0.141346 -0.799154 -0.584272
vn -0.149235 -0.832292 -0.533871
vn -0.022174 -0.802230 -0.596603
vn -0.024026 -0.838129 -0.544943
vn 0.015077 -0.801467 -0.597849
vn 0.016885 -0.838225 -0.545063
vn 0.050638 -0.803287 -0.593436
vn 0.055191 -0.838732 -0.541741
vn 0.165657 -0.799796 -0.576961
vn 0.175590 -0.831858 -0.526479
vn 0.300823 -0.785195 -0.541270
vn 0.401753 -0.771617 -0.493155
vn 0.437078 -0.764566 -0.473710
vn -0.403098 -0.748050 -0.527194
vn -0.367170 -0.749927 -0.550269
vn -0.265327 -0.755646 -0.598832
vn -0.132001 -0.763844 -0.631758
vn -0.020252 -0.765242 -0.643424
vn 0.013374 -0.765120 -0.643748
vn 0.045943 -0.766794 -0.640247
vn 0.154017 -0.765683 -0.624506
vn 0.281253 -0.758531 -0.587816
vn 0.375972 -0.755345 -0.536748
vn 0.409050 -0.754801 -0.512790
vn 0.000000 0.000000 0.000000
vn 0.000000 0.000000 0.000000
vn 0.000000 0.000000 0.000000
vn 0.000000 0.000000 0.000000
vn 0.000000 0.000000 0.000000
vn 0.000000 0.000000 0.000000
vn 0.000000 0.000000 0.000000
vn 0.000000 0.000000 0.000000
vn 0.000000 0.000000 0.000000
vn 0.000000 0.000000 0.000000
vn 0.000000 0.000000 0.000000
vn 0.000000 0.000000 0.000000
vn 0.000000 0.000000 0.000000
vn 0.000000 0.000000 0.000000
vn 0.000000 0.000000 0.000000
vn 0.000000 0.000000 0.000000
vn 0.000000 0.000000 0.000000
vn 0.000000 0.000000 0.000000
vn 0.000000 0.000000 0.000000
vn 0.000000 0.000000 0.000000
vn 0.000000 0.000000 0.000000
vn 0.000000 0.000000 0.000000
vn 0.000000 0.000000 0.000000
vn 0.000000 0.000000 0.000000
vn 0.000000 0.000000 0.000000
vn 0.000000 0.000000 0.000000
vn 0.000000 0.000000 0.000000
vn 0.000000 0.000000 0.000000
vn 0.000000 0.000000 0.000000
vn 0.000000 0.000000 0.000000
vn 0.000000 0.000000 0.000000
vn 0.000000 0.000000 0.000000
vn 0.000000 0.000000 0.000000
vn 0.000000 0.000000 0.000000
vn 0.000000 0.000000 0.000000
vn 0.000000 0.000000 0.000000
vn 0.000000 0.000000 0.000000
vn 0.000000 0.000000 0.000000
vn 0.000000 0.000000 0.000000
vn 0.000000 0.000000 0.000000
vn 0.000000 0.000000 0.000000
vn 0.000000 0.000000 0.000000
vn 0.000000 0.000000 0.000000
vn 0.000000 0.000000 0.000000
vn 0.000000 0.000000 0.000000
vn 0.000000 0.000000 0.000000
vn 0.000000 0.000000 0.000000
vn 0.000000 0.000000 0.000000
vn 0.000000 0.000000 0.000000
vn 0.000000 0.000000 0.000000
vn 0.000000 0.000000 0.000000
vn 0.000000 0.000000 0.000000
vn 0.000000 0.000000 0.000000
vn 0.000000 0.000000 0.000000
vn 0.000000 0.000000 0.000000
vn 0.000000 0.000000 0.000000
vn 0.000000 0.000000 0.000000
vn 0.000000 0.000000 0.000000
vn 0.000000 0.000000 0.000000
vn 0.000000 0.000000 0.000000
vn 0.000000 0.000000 0.000000
vn 0.000000 0.000000 0.000000
vn 0.000000 0.000000 0.000000
vn 0.000000 0.000000 0.000000
vn 0.000000 0.000000 0.000000
vn 0.000000 0.000000 0.000000
vn 0.000000 0.000000 0.000000
vn 0.000000 0.000000 0.000000
vn 0.000000 0.000000 0.000000
vn 0.000000 0.000000 0.000000
vn 0.000000 0.000000 0.000000
vn 0.000000 0.000000 0.000000
vn 0.000000 0.000000 0.000000
vn 0.000000 0.000000 0.000000
vn 0.000000 0.000000 0.000000
vn 0.000000 0.000000 0.000000
vn 0.000000 0.000000 0.000000
vn 0.000000 0.000000 0.000000
vn 0.000000 0.000000 0.000000
vn 0.000000 0.000000 0.000000
vn 0.000000 0.000000 0.000000
vn 0.000000 0.000000 0.000000
vn 0.000000 0.000000 0.000000
vn 0.000000 0.000000 0.000000
vn 0.000000 0.000000 0.000000
vn 0.000000 0.000000 0.000000
vn 0.000000 0.000000 0.000000
vn 0.000000 0.000000 0.000000
vn 0.000000 0.000000 0.000000
vn 0.000000 0.000000 0.000000
vn 0.000000 0.000000 0.000000
vn 0.000000 0.000000 0.000000
vn 0.000000 0.000000 0.000000
vn 0.000000 0.000000 0.000000
vn 0.000000 0.000000 0.000000
vn 0.000000 0.000000 0.000000
vn -0.100879 -0.655658 0.748288
vn -0.100879 -0.655658 0.748288
vn -0.100879 -0.655658 0.748288
vn -0.100879 -0.655658 0.748288
vn -0.727187 -0.663921 0.174377
vn -0.727187 -0.663921 0.174377
vn -0.727187 -0.663921 0.174377
vn -0.727187 -0.663921 0.174377
vn -0.072312 -0.600437 0.796396
vn -0.072312 -0.600437 0.796396
vn -0.072312 -0.600437 0.796396
vn -0.072312 -0.600437 0.796396
vn -0.039097 -0.562933 0.825577
vn -0.039097 -0.562933 0.825577
vn -0.039097 -0.562933 0.825577
vn -0.039097 -0.562933 0.825577
vn -0.005464 -0.545541 0.838067
vn -0.005464 -0.545541 0.838067
vn -0.005464 -0.545541 0.838067
vn -0.005464 -0.545541 0.838067
vn 0.007680 -0.544918 0.838454
vn 0.007680 -0.544918 0.838454
vn 0.007680 -0.544918 0.838454
vn 0.007680 -0.544918 0.838454
vn -0.000776 -0.546760 0.837289
vn -0.000776 -0.546760 0.837289
vn -0.000776 -0.546760 0.837289
vn -0.000776 -0.546760 0.837289
vn 0.011688 -0.550741 0.834595
vn 0.011688 -0.550741 0.834595
vn 0.011688 -0.550741 0.834595
vn 0.011688 -0.550741 0.834595
vn 0.044439 -0.571013 0.819737
vn 0.044439 -0.571013 0.819738
vn 0.044439 -0.571013 0.819738
vn 0.044439 -0.571013 0.819738
vn 0.076237 -0.610765 0.788133
vn 0.076237 -0.610765 0.788133
vn 0.076237 -0.610765 0.788133
vn 0.076237 -0.610765 0.788133
vn 0.102795 -0.667120 0.737824
vn 0.102795 -0.667120 0.737824
vn 0.102795 -0.667120 0.737824
vn 0.102795 -0.667120 0.737824
vn 0.718403 -0.674642 0.169577
vn 0.718403 -0.674642 0.169577
vn 0.718403 -0.674642 0.169577
vn 0.718403 -0.674642 0.169577
vn -0.807914 -0.574534 0.131094
vn -0.807914 -0.574534 0.131094
vn -0.807914 -0.574534 0.131094
vn -0.807914 -0.574534 0.131094
vn 0.799468 -0.586835 0.128357
vn 0.799468 -0.586835 0.128357
vn 0.799468 -0.586835 0.128357
vn 0.799468 -0.586835 0.128357
vn -0.855007 -0.511653 0.084702
vn -0.855007 -0.511653 0.084702
vn -0.855007 -0.511653 0.084702
vn -0.855007 -0.511653 0.084702
vn 0.847430 -0.524326 0.083337
vn 0.847430 -0.524326 0.083337
vn 0.847430 -0.524326 0.083337
vn 0.847430 -0.524326 0.083337
vn -0.878764 -0.475531 0.040544
vn -0.878764 -0.475531 0.040544
vn -0.878764 -0.475531 0.040544
vn -0.878764 -0.475531 0.040544
vn 0.871848 -0.488172 0.039619
vn 0.871848 -0.488172 0.039619
vn 0.871848 -0.488172 0.039619
vn 0.871848 -0.488172 0.039619
vn -0.887470 -0.460615 0.015227
vn -0.887470 -0.460615 0.015227
vn -0.887470 -0.460615 0.015227
vn -0.887470 -0.460615 0.015227
vn 0.880784 -0.473278 0.015058
vn 0.880784 -0.473278 0.015058
vn 0.880784 -0.473278 0.015058
vn 0.880784 -0.473278 0.015058
vn -0.890184 -0.455554 0.006533
vn -0.890184 -0.455554 0.006533
vn -0.890184 -0.455554 0.006533
vn -0.890184 -0.455554 0.006533
vn 0.883735 -0.467928 0.007472
vn 0.883735 -0.467928 0.007472
vn 0.883735 -0.467928 0.007472
vn 0.883735 -0.467928 0.007472
vn -0.887357 -0.460663 -0.019687
vn -0.887357 -0.460663 -0.019687
vn -0.887357 -0.460663 -0.019687
vn -0.887357 -0.460663 -0.019687
vn 0.881129 -0.472527 -0.018189
vn 0.881129 -0.472527 -0.018189
vn 0.881129 -0.472527 -0.018189
vn 0.881129 -0.472527 -0.018189
vn -0.871083 -0.486876 -0.064546
vn -0.871083 -0.486876 -0.064546
vn -0.871083 -0.486876 -0.064546
vn -0.871083 -0.486876 -0.064546
vn 0.864619 -0.498473 -0.062920
vn 0.864619 -0.498473 -0.062920
vn 0.864619 -0.498473 -0.062920
vn 0.864619 -0.498473 -0.062920
vn -0.833892 -0.540066 -0.113809
vn -0.833892 -0.540066 -0.113809
vn -0.833892 -0.540066 -0.113809
vn -0.833892 -0.540066 -0.113809
vn 0.826867 -0.551289 -0.111228
vn 0.826867 -0.551289 -0.111228
vn 0.826867 -0.551289 -0.111228
vn 0.826867 -0.551289 -0.111228
vn -0.121302 -0.617689 -0.777011
vn -0.121302 -0.617689 -0.777011
vn -0.121302 -0.617689 -0.777011
vn -0.121302 -0.617689 -0.777011
vn -0.765596 -0.622325 -0.163016
vn -0.765596 -0.622325 -0.163016
vn -0.765596 -0.622325 -0.163016
vn -0.765596 -0.622325 -0.163016
vn -0.086710 -0.554257 -0.827816
vn -0.086710 -0.554257 -0.827816
vn -0.086710 -0.554257 -0.827816
vn -0.086710 -0.554257 -0.827816
vn -0.049355 -0.511863 -0.857648
vn -0.049355 -0.511863 -0.857648
vn -0.049355 -0.511863 -0.857648
vn -0.049355 -0.511863 -0.857648
vn -0.013264 -0.490892 -0.871119
vn -0.013264 -0.490892 -0.871120
vn -0.013264 -0.490892 -0.871119
vn -0.013264 -0.490892 -0.871119
vn 0.003952 -0.487188 -0.873288
vn 0.003952 -0.487188 -0.873288
vn 0.003952 -0.487188 -0.873288
vn 0.003952 -0.487188 -0.873288
vn 0.002203 -0.488705 -0.872446
vn 0.002203 -0.488705 -0.872446
vn 0.002203 -0.488705 -0.872446
vn 0.002203 -0.488705 -0.872446
vn 0.018971 -0.495250 -0.868543
vn 0.018971 -0.495250 -0.868543
vn 0.018971 -0.495250 -0.868543
vn 0.018971 -0.495250 -0.868543
vn 0.054414 -0.518809 -0.853157
vn 0.054414 -0.518809 -0.853157
vn 0.054414 -0.518809 -0.853157
vn 0.054414 -0.518809 -0.853157
vn 0.090841 -0.563525 -0.821089
vn 0.090841 -0.563525 -0.821089
vn 0.090841 -0.563525 -0.821089
vn 0.090841 -0.563525 -0.821089
vn 0.758446 -0.632300 -0.157975
vn 0.758446 -0.632300 -0.157975
vn 0.758446 -0.632300 -0.157975
vn 0.758446 -0.632300 -0.157975
vn 0.122859 -0.628365 -0.768156
vn 0.122859 -0.628365 -0.768155
vn 0.122859 -0.628365 -0.768156
vn 0.122859 -0.628365 -0.768156
vn 0.000000 0.000000 1.000000
vn 0.000000 0.000000 1.000000
vn 0.000000 0.000000 1.000000
vn 0.000000 0.000000 1.000000
vn 1.000000 0.000000 0.000000
vn 1.000000 0.000000 0.000000
vn 1.000000 0.000000 0.000000
vn 1.000000 0.000000 0.000000
vn 0.000000 0.000000 -1.000000
vn 0.000000 0.000000 -1.000000
vn 0.000000 0.000000 -1.000000
vn 0.000000 0.000000 -1.000000
vn -1.000000 0.000000 0.000000
vn -1.000000 0.000000 0.000000
vn -1.000000 0.000000 0.000000
vn -1.000000 0.000000 0.000000
s 1
g pPlane1
usemtl initialShadingGroup
f 146/291/1 147/292/2 148/13/3
f 147/292/2 150/294/4 151/14/5 148/13/3
f 150/294/4 152/295/6 153/15/7 151/14/5
f 152/295/6 154/296/8 155/16/9 153/15/7
f 154/296/8 156/297/10 157/17/11 155/16/9
f 156/297/10 158/298/12 159/18/13 157/17/11
f 158/298/12 160/299/14 161/19/15 159/18/13
f 160/299/14 162/300/16 163/20/17 161/19/15
f 162/300/16 164/301/18 165/21/19 163/20/17
f 164/301/18 166/302/20 165/21/19
f 149/293/21 148/13/3 168/24/22 169/304/23
f 148/13/3 151/14/5 170/25/24 168/24/22
f 151/14/5 153/15/7 171/26/25 170/25/24
f 153/15/7 155/16/9 172/27/26 171/26/25
f 155/16/9 157/17/11 173/28/27 172/27/26
f 157/17/11 159/18/13 174/29/28 173/28/27
f 159/18/13 161/19/15 175/30/29 174/29/28
f 161/19/15 163/20/17 176/31/30 175/30/29
f 163/20/17 165/21/19 177/32/31 176/31/30
f 165/21/19 167/303/32 178/305/33 177/32/31
f 169/304/23 168/24/22 179/35/34 180/306/35
f 168/24/22 170/25/24 181/36/36 179/35/34
s 2
f 182/122/37 183/123/38 184/37/39 185/124/40
f 183/123/38 186/125/41 187/38/42 184/37/39
f 186/125/41 188/126/43 189/39/44 187/38/42
f 188/126/43 190/127/45 191/40/46 189/39/44
f 190/127/45 192/128/47 193/41/48 191/40/46
f 192/128/47 194/129/49 195/130/50 193/41/48
s 1
f 176/31/30 177/32/31 196/43/51 197/42/52
f 177/32/31 178/305/33 198/307/53 196/43/51
f 180/306/35 179/35/34 199/46/54 200/308/55
f 179/35/34 181/36/36 201/47/56 199/46/54
s 2
f 185/124/40 184/37/39 202/48/57 203/131/58
f 184/37/39 187/38/42 204/49/59 202/48/57
f 187/38/42 189/39/44 205/50/60 204/49/59
f 189/39/44 191/40/46 206/51/61 205/50/60
f 191/40/46 193/41/48 207/52/62 206/51/61
f 193/41/48 195/130/50 208/132/63 207/52/62
s 1
f 197/42/52 196/43/51 209/54/64 210/53/65
f 196/43/51 198/307/53 211/309/66 209/54/64
f 200/308/55 199/46/54 212/57/67 213/310/68
f 199/46/54 201/47/56 214/58/69 212/57/67
s 2
f 203/131/58 202/48/57 215/59/70 216/133/71
f 202/48/57 204/49/59 217/60/72 215/59/70
f 204/49/59 205/50/60 218/61/73 217/60/72
s off
f 291/331/74 292/332/75 293/333/76 294/334/77
s 2
f 206/51/61 207/52/62 220/63/78 219/62/79
f 207/52/62 208/132/63 221/134/80 220/63/78
s 1
f 210/53/65 209/54/64 222/65/81 223/64/82
f 209/54/64 211/309/66 224/311/83 222/65/81
f 213/310/68 212/57/67 225/68/84 226/312/85
f 212/57/67 214/58/69 227/69/86 225/68/84
s 2
f 216/133/71 215/59/70 228/70/87 229/135/88
f 215/59/70 217/60/72 230/71/89 228/70/87
f 217/60/72 218/61/73 231/72/90 230/71/89
f 218/61/73 219/62/79 232/73/91 231/72/90
f 219/62/79 220/63/78 233/74/92 232/73/91
f 220/63/78 221/134/80 234/136/93 233/74/92
s 1
f 223/64/82 222/65/81 235/76/94 236/75/95
f 222/65/81 224/311/83 237/313/96 235/76/94
f 226/312/85 225/68/84 238/79/97 239/314/98
f 225/68/84 227/69/86 240/80/99 238/79/97
s 2
f 229/135/88 228/70/87 241/81/100 242/137/101
f 228/70/87 230/71/89 243/82/102 241/81/100
f 230/71/89 231/72/90 244/83/103 243/82/102
f 231/72/90 232/73/91 245/84/104 244/83/103
f 232/73/91 233/74/92 246/85/105 245/84/104
f 233/74/92 234/136/93 247/138/106 246/85/105
s 1
f 236/75/95 235/76/94 248/87/107 249/86/108
f 235/76/94 237/313/96 250/315/109 248/87/107
f 239/314/98 238/79/97 251/90/110 252/316/111
f 238/79/97 240/80/99 253/91/112 251/90/110
s 2
f 242/137/101 241/81/100 254/139/113 255/140/114
f 241/81/100 243/82/102 256/141/115 254/139/113
f 243/82/102 244/83/103 257/142/116 256/141/115
f 244/83/103 245/84/104 258/143/117 257/142/116
f 245/84/104 246/85/105 259/144/118 258/143/117
f 246/85/105 247/138/106 260/145/119 259/144/118
s 1
f 249/86/108 248/87/107 261/98/120 262/97/121
f 248/87/107 250/315/109 263/317/122 261/98/120
f 252/316/111 251/90/110 264/101/123 265/318/124
f 251/90/110 253/91/112 266/102/125 264/101/123
f 253/91/112 267/92/126 268/103/127 266/102/125
f 267/92/126 269/93/128 270/104/129 268/103/127
f 269/93/128 271/94/130 272/105/131 270/104/129
f 271/94/130 273/95/132 274/106/133 272/105/131
f 273/95/132 275/96/134 276/107/135 274/106/133
f 275/96/134 262/97/121 277/108/136 276/107/135
f 262/97/121 261/98/120 278/109/137 277/108/136
f 261/98/120 263/317/122 279/319/138 278/109/137
f 265/318/124 264/101/123 281/321/139
f 264/101/123 266/102/125 282/322/140 280/320/141
f 266/102/125 268/103/127 283/323/142 282/322/140
f 268/103/127 270/104/129 284/324/143 283/323/142
f 270/104/129 272/105/131 285/325/144 284/324/143
f 272/105/131 274/106/133 286/326/145 285/325/144
f 274/106/133 276/107/135 287/327/146 286/326/145
f 276/107/135 277/108/136 288/328/147 287/327/146
f 277/108/136 278/109/137 289/329/148 288/328/147
f 278/109/137 290/330/149 289/329/148
s off
f 170/25/150 171/26/151 183/123/152 182/122/153
f 181/36/154 170/25/155 182/122/156 185/124/157
f 171/26/158 172/27/159 186/125/160 183/123/161
f 172/27/162 173/28/163 188/126/164 186/125/165
f 173/28/166 174/29/167 190/127/168 188/126/169
f 174/29/170 175/30/171 192/128/172 190/127/173
f 175/30/174 176/31/175 194/129/176 192/128/177
f 176/31/178 197/42/179 195/130/180 194/129/181
f 201/47/182 181/36/183 185/124/184 203/131/185
f 197/42/186 210/53/187 208/132/188 195/130/189
f 214/58/190 201/47/191 203/131/192 216/133/193
f 210/53/194 223/64/195 221/134/196 208/132/197
f 227/69/198 214/58/199 216/133/200 229/135/201
f 223/64/202 236/75/203 234/136/204 221/134/205
f 240/80/206 227/69/207 229/135/208 242/137/209
f 236/75/210 249/86/211 247/138/212 234/136/213
f 267/92/214 253/91/215 255/140/216 254/139/217
f 253/91/218 240/80/219 242/137/220 255/140/221
f 269/93/222 267/92/223 254/139/224 256/141/225
f 271/94/226 269/93/227 256/141/228 257/142/229
f 273/95/230 271/94/231 257/142/232 258/143/233
f 275/96/234 273/95/235 258/143/236 259/144/237
f 249/86/238 262/97/239 260/145/240 247/138/241
f 262/97/242 275/96/243 259/144/244 260/145/245
s 3
f 1/146/246 12/149/247 13/148/248 2/147/249
f 2/147/249 13/148/248 14/151/250 3/150/251
f 3/150/251 14/151/250 15/153/252 4/152/253
f 4/152/253 15/153/252 16/155/254 5/154/255
f 5/154/255 16/155/254 17/157/256 6/156/257
f 6/156/257 17/157/256 18/159/258 7/158/259
f 7/158/259 18/159/258 19/161/260 8/160/261
f 8/160/261 19/161/260 20/163/262 9/162/263
f 9/162/263 20/163/262 21/165/264 10/164/265
f 10/164/265 21/165/264 22/167/266 11/166/267
f 12/149/247 23/169/268 24/168/269 13/148/248
f 13/148/248 24/168/269 25/170/270 14/151/250
f 14/151/250 25/170/270 26/171/271 15/153/252
f 15/153/252 26/171/271 27/172/272 16/155/254
f 16/155/254 27/172/272 28/173/273 17/157/256
f 17/157/256 28/173/273 29/174/274 18/159/258
f 18/159/258 29/174/274 30/175/275 19/161/260
f 19/161/260 30/175/275 31/176/276 20/163/262
f 20/163/262 31/176/276 32/177/277 21/165/264
f 21/165/264 32/177/277 33/178/278 22/167/266
f 23/169/268 34/180/279 35/179/280 24/168/269
f 24/168/269 35/179/280 36/181/281 25/170/270
s 4
f 97/182/282 100/185/283 99/184/284 98/183/285
f 98/183/285 99/184/284 102/187/286 101/186/287
f 101/186/287 102/187/286 104/189/288 103/188/289
f 103/188/289 104/189/288 106/191/290 105/190/291
f 105/190/291 106/191/290 108/193/292 107/192/293
f 107/192/293 108/193/292 110/195/294 109/194/295
s 3
f 31/176/276 37/197/296 38/196/297 32/177/277
f 32/177/277 38/196/297 39/198/298 33/178/278
f 34/180/279 40/200/299 41/199/300 35/179/280
f 35/179/280 41/199/300 42/201/301 36/181/281
s 4
f 100/185/283 112/203/302 111/202/303 99/184/284
f 99/184/284 111/202/303 113/204/304 102/187/286
f 102/187/286 113/204/304 114/205/305 104/189/288
f 104/189/288 114/205/305 115/206/306 106/191/290
f 106/191/290 115/206/306 116/207/307 108/193/292
f 108/193/292 116/207/307 117/208/308 110/195/294
s 3
f 37/197/296 43/210/309 44/209/310 38/196/297
f 38/196/297 44/209/310 45/211/311 39/198/298
f 40/200/299 46/213/312 47/212/313 41/199/300
f 41/199/300 47/212/313 48/214/314 42/201/301
s 4
f 112/203/302 119/216/315 118/215/316 111/202/303
f 111/202/303 118/215/316 120/217/317 113/204/304
f 113/204/304 120/217/317 121/218/318 114/205/305
f 114/205/305 121/218/318 122/219/319 115/206/306
f 115/206/306 122/219/319 123/220/320 116/207/307
f 116/207/307 123/220/320 124/221/321 117/208/308
s 3
f 43/210/309 49/223/322 50/222/323 44/209/310
f 44/209/310 50/222/323 51/224/324 45/211/311
f 46/213/312 52/226/325 53/225/326 47/212/313
f 47/212/313 53/225/326 54/227/327 48/214/314
s 4
f 119/216/315 126/229/328 125/228/329 118/215/316
f 118/215/316 125/228/329 127/230/330 120/217/317
f 120/217/317 127/230/330 128/231/331 121/218/318
f 121/218/318 128/231/331 129/232/332 122/219/319
f 122/219/319 129/232/332 130/233/333 123/220/320
f 123/220/320 130/233/333 131/234/334 124/221/321
s 3
f 49/223/322 55/236/335 56/235/336 50/222/323
f 50/222/323 56/235/336 57/237/337 51/224/324
f 52/226/325 58/239/338 59/238/339 53/225/326
f 53/225/326 59/238/339 60/240/340 54/227/327
s 4
f 126/229/328 133/242/341 132/241/342 125/228/329
f 125/228/329 132/241/342 134/243/343 127/230/330
f 127/230/330 134/243/343 135/244/344 128/231/331
f 128/231/331 135/244/344 136/245/345 129/232/332
f 129/232/332 136/245/345 137/246/346 130/233/333
f 130/233/333 137/246/346 138/247/347 131/234/334
s 3
f 55/236/335 61/249/348 62/248/349 56/235/336
f 56/235/336 62/248/349 63/250/350 57/237/337
f 58/239/338 64/252/351 65/251/352 59/238/339
f 59/238/339 65/251/352 66/253/353 60/240/340
s 4
f 133/242/341 140/255/354 139/254/355 132/241/342
f 132/241/342 139/254/355 141/256/356 134/243/343
f 134/243/343 141/256/356 142/257/357 135/244/344
f 135/244/344 142/257/357 143/258/358 136/245/345
f 136/245/345 143/258/358 144/259/359 137/246/346
f 137/246/346 144/259/359 145/260/360 138/247/347
s 3
f 61/249/348 72/262/361 73/261/362 62/248/349
f 62/248/349 73/261/362 74/263/363 63/250/350
f 64/252/351 75/265/364 76/264/365 65/251/352
f 65/251/352 76/264/365 77/266/366 66/253/353
f 66/253/353 77/266/366 78/268/367 67/267/368
f 67/267/368 78/268/367 79/270/369 68/269/370
f 68/269/370 79/270/369 80/272/371 69/271/372
f 69/271/372 80/272/371 81/274/373 70/273/374
f 70/273/374 81/274/373 82/276/375 71/275/376
f 71/275/376 82/276/375 83/277/377 72/262/361
f 72/262/361 83/277/377 84/278/378 73/261/362
f 73/261/362 84/278/378 85/279/379 74/263/363
f 75/265/364 86/281/380 87/280/381 76/264/365
f 76/264/365 87/280/381 88/282/382 77/266/366
f 77/266/366 88/282/382 89/283/383 78/268/367
f 78/268/367 89/283/383 90/284/384 79/270/369
f 79/270/369 90/284/384 91/285/385 80/272/371
f 80/272/371 91/285/385 92/286/386 81/274/373
f 81/274/373 92/286/386 93/287/387 82/276/375
f 82/276/375 93/287/387 94/288/388 83/277/377
f 83/277/377 94/288/388 95/289/389 84/278/378
f 84/278/378 95/289/389 96/290/390 85/279/379
s off
f 25/170/391 97/182/392 98/183/393 26/171/394
f 36/181/395 100/185/396 97/182/397 25/170/398
f 26/171/399 98/183/400 101/186/401 27/172/402
f 27/172/403 101/186/404 103/188/405 28/173/406
f 28/173/407 103/188/408 105/190/409 29/174/410
f 29/174/411 105/190/412 107/192/413 30/175/414
f 30/175/415 107/192/416 109/194/417 31/176/418
f 31/176/419 109/194/420 110/195/421 37/197/422
f 42/201/423 112/203/424 100/185/425 36/181/426
f 37/197/427 110/195/428 117/208/429 43/210/430
f 48/214/431 119/216/432 112/203/433 42/201/434
f 43/210/435 117/208/436 124/221/437 49/223/438
f 54/227/439 126/229/440 119/216/441 48/214/442
f 49/223/443 124/221/444 131/234/445 55/236/446
f 60/240/447 133/242/448 126/229/449 54/227/450
f 55/236/451 131/234/452 138/247/453 61/249/454
f 67/267/455 139/254/456 140/255/457 66/253/458
f 66/253/459 140/255/460 133/242/461 60/240/462
f 68/269/463 141/256/464 139/254/465 67/267/466
f 69/271/467 142/257/468 141/256/469 68/269/470
f 70/273/471 143/258/472 142/257/473 69/271/474
f 71/275/475 144/259/476 143/258/477 70/273/478
f 61/249/479 138/247/480 145/260/481 72/262/482
f 72/262/483 145/260/484 144/259/485 71/275/486
f 1/1/487 2/2/488 147/292/489 146/291/490
f 12/12/491 1/1/492 146/291/493 149/293/494
f 2/2/495 3/3/496 150/294/497 147/292/498
f 3/3/499 4/4/500 152/295/501 150/294/502
f 4/4/503 5/5/504 154/296/505 152/295/506
f 5/5/507 6/6/508 156/297/509 154/296/510
f 6/6/511 7/7/512 158/298/513 156/297/514
f 7/7/515 8/8/516 160/299/517 158/298/518
f 8/8/519 9/9/520 162/300/521 160/299/522
f 9/9/523 10/10/524 164/301/525 162/300/526
f 10/10/527 11/11/528 166/302/529 164/301/530
f 11/11/531 22/22/532 167/303/533 166/302/534
f 23/23/535 12/12/536 149/293/537 169/304/538
f 22/22/539 33/33/540 178/305/541 167/303/542
f 34/34/543 23/23/544 169/304/545 180/306/546
f 33/33/547 39/44/548 198/307/549 178/305/550
f 40/45/551 34/34/552 180/306/553 200/308/554
f 39/44/555 45/55/556 211/309/557 198/307/558
f 46/56/559 40/45/560 200/308/561 213/310/562
f 45/55/563 51/66/564 224/311/565 211/309/566
f 52/67/567 46/56/568 213/310/569 226/312/570
f 51/66/571 57/77/572 237/313/573 224/311/574
f 58/78/575 52/67/576 226/312/577 239/314/578
f 57/77/579 63/88/580 250/315/581 237/313/582
f 64/89/583 58/78/584 239/314/585 252/316/586
f 63/88/587 74/99/588 263/317/589 250/315/590
f 75/100/591 64/89/592 252/316/593 265/318/594
f 74/99/595 85/110/596 279/319/597 263/317/598
f 87/112/599 86/111/600 281/321/601 280/320/602
f 86/111/603 75/100/604 265/318/605 281/321/606
f 88/113/607 87/112/608 280/320/609 282/322/610
f 89/114/611 88/113/612 282/322/613 283/323/614
f 90/115/615 89/114/616 283/323/617 284/324/618
f 91/116/619 90/115/620 284/324/621 285/325/622
f 92/117/623 91/116/624 285/325/625 286/326/626
f 93/118/627 92/117/628 286/326/629 287/327/630
f 94/119/631 93/118/632 287/327/633 288/328/634
f 95/120/635 94/119/636 288/328/637 289/329/638
f 85/110/639 96/121/640 290/330/641 279/319/642
f 96/121/643 95/120/644 289/329/645 290/330/646
f 205/50/647 206/51/648 292/332/649 291/331/650
f 206/51/651 219/62/652 293/333/653 292/332/654
f 219/62/655 218/61/656 294/334/657 293/333/658
f 218/61/659 205/50/660 291/331/661 294/334/662
s 1
f 278/109/137 279/319/138 290/330/149
f 165/21/19 166/302/20 167/303/32
f 146/291/1 148/13/3 149/293/21
f 281/321/139 264/101/123 280/320/141
